<svg xmlns="http://www.w3.org/2000/svg" width="24" height="24" viewBox="0 0 24 24">
  <!-- Luminal grabbing cursor — closed fist, cyan glow -->
  <defs>
    <filter id="g">
      <feGaussianBlur stdDeviation="0.7" result="b"/>
      <feMerge><feMergeNode in="b"/><feMergeNode in="SourceGraphic"/></feMerge>
    </filter>
  </defs>
  <g filter="url(#g)">
    <path d="M7 13 C6 11 8 10 9 11 L9 12
             M9 11 C9 9.5 11 9.5 11 11 L11 12
             M11 11 C11 9.5 13 9.5 13 11 L13 12
             M13 11 C13 9.5 15 10 15 11 L15 12
             M7 13 L5 14 C4 15 4 16 4 17 C4 20 7 22 12 22
             C17 22 19 19 19 16 L19 13 C19 11.5 17 11 16 12 L15 12"
          fill="rgba(4,2,14,0.85)" stroke="#00ffff" stroke-width="1.1"
          stroke-linejoin="round" stroke-linecap="round"/>
  </g>
</svg>
